<?xml version="1.0" encoding="utf-8"?>
<!-- Uploaded to: SVG Repo, www.svgrepo.com, Generator: SVG Repo Mixer Tools -->
<svg fill="#000000" width="100%" height="100%" viewBox="0 0 32 32" version="1.1" xmlns="http://www.w3.org/2000/svg">
<title>fingerprint</title>
<path d="M6.108 6.978c2.406-2.037 5.454-3.384 8.801-3.704l0.065-0.005c4.144 0.009 7.958 1.419 10.994 3.781l-0.040-0.030c0.201 0.145 0.453 0.231 0.725 0.231 0.69 0 1.25-0.56 1.25-1.25 0-0.419-0.206-0.789-0.522-1.016l-0.004-0.003c-3.345-2.626-7.616-4.212-12.257-4.212-0.1 0-0.201 0.001-0.301 0.002l0.015-0c-3.955 0.356-7.493 1.903-10.314 4.275l0.028-0.023c-0.289 0.231-0.472 0.583-0.472 0.978 0 0.69 0.56 1.25 1.25 1.25 0.297 0 0.57-0.104 0.785-0.277l-0.002 0.002zM28.924 11.158c-4.264-4.681-8.627-7.054-12.971-7.054h-0.046c-4.33 0.017-8.649 2.393-12.838 7.061-0.198 0.22-0.32 0.514-0.32 0.835 0 0.691 0.56 1.25 1.25 1.25 0.369 0 0.701-0.16 0.93-0.414l0.001-0.001c3.696-4.12 7.393-6.217 10.986-6.231h0.035c3.612 0 7.354 2.099 11.124 6.237 0.229 0.251 0.558 0.408 0.924 0.408 0.69 0 1.25-0.56 1.25-1.25 0-0.325-0.124-0.621-0.327-0.843l0.001 0.001zM22.805 27.199c-1.577-0.416-2.909-1.297-3.876-2.486l-0.011-0.014c-0.973-1.284-1.591-2.885-1.683-4.626l-0.001-0.021c-0.074-0.635-0.609-1.124-1.258-1.124-0.040 0-0.079 0.002-0.117 0.005l0.005-0c-0.634 0.067-1.124 0.599-1.124 1.245 0 0.044 0.002 0.087 0.007 0.129l-0-0.005c0.146 2.266 0.96 4.318 2.245 5.989l-0.019-0.026c1.312 1.614 3.097 2.797 5.143 3.34l0.069 0.016c0.092 0.025 0.198 0.039 0.308 0.039 0.001 0 0.002 0 0.003 0h-0c0 0 0 0 0 0 0.69 0 1.25-0.56 1.25-1.25 0-0.58-0.395-1.068-0.931-1.209l-0.009-0.002zM20.271 8.882c-1.306-0.522-2.819-0.825-4.403-0.825-0.612 0-1.214 0.045-1.801 0.132l0.066-0.008c-2.235 0.377-4.203 1.322-5.811 2.68l0.018-0.015c-2.327 1.907-3.993 4.542-4.653 7.554l-0.016 0.089c-0.095 0.447-0.171 0.896-0.237 1.447-0.030 0.333-0.047 0.721-0.047 1.112 0 3.082 1.054 5.919 2.82 8.168l-0.022-0.029c0.231 0.288 0.583 0.47 0.977 0.47 0.691 0 1.25-0.56 1.25-1.25 0-0.299-0.105-0.574-0.28-0.789l0.002 0.002c-1.405-1.783-2.253-4.062-2.253-6.538 0-0.326 0.015-0.649 0.043-0.967l-0.003 0.041q0.073-0.577 0.194-1.146c0.553-2.531 1.915-4.682 3.796-6.222l0.020-0.015c1.257-1.067 2.814-1.819 4.527-2.114l0.057-0.008c0.406-0.060 0.874-0.095 1.351-0.095 1.266 0 2.475 0.243 3.583 0.685l-0.065-0.023c2.963 1.144 5.228 3.524 6.192 6.49l0.021 0.073c0.512 1.656 0.637 4.609-0.32 5.656-0.127 0.139-0.457 0.516-1.488 0.297-0.652-0.176-1.212-0.507-1.658-0.951l0 0c-0.317-0.257-0.57-0.58-0.739-0.949l-0.007-0.016c-0.090-0.319-0.141-0.686-0.141-1.065 0-0.026 0-0.052 0.001-0.078l-0 0.004c0-0.004 0-0.008 0-0.012 0-0.606-0.083-1.193-0.237-1.75l0.011 0.046c-0.575-1.563-1.853-2.745-3.44-3.177l-0.036-0.008c-0.509-0.188-1.096-0.296-1.709-0.296-0.387 0-0.763 0.043-1.125 0.125l0.034-0.006c-1.013 0.294-1.869 0.862-2.51 1.618l-0.006 0.007c-0.739 0.771-1.271 1.746-1.502 2.833l-0.007 0.038c-0.012 0.171-0.019 0.37-0.019 0.572 0 2.353 0.929 4.489 2.439 6.062l-0.003-0.003c1.386 1.66 2.884 3.136 4.513 4.457l0.060 0.047c0.217 0.185 0.5 0.298 0.81 0.298 0.691 0 1.25-0.56 1.25-1.25 0-0.383-0.173-0.727-0.444-0.956l-0.002-0.002c-1.56-1.261-2.944-2.619-4.188-4.099l-0.038-0.046c-1.186-1.151-1.922-2.759-1.922-4.539 0-0.031 0-0.063 0.001-0.094l-0 0.005c0.154-0.645 0.47-1.201 0.902-1.643l-0.001 0.001c0.326-0.402 0.758-0.707 1.253-0.873l0.019-0.006c0.143-0.027 0.308-0.043 0.477-0.043 0.34 0 0.666 0.064 0.965 0.18l-0.018-0.006c0.837 0.199 1.51 0.769 1.847 1.522l0.007 0.017c0.076 0.308 0.119 0.661 0.119 1.025 0 0.019-0 0.038-0 0.056l0-0.003c-0 0.016-0 0.034-0 0.053 0 0.662 0.107 1.298 0.303 1.894l-0.012-0.043c0.321 0.778 0.801 1.433 1.403 1.949l0.007 0.006c0.761 0.734 1.714 1.274 2.776 1.538l0.042 0.009c0.321 0.098 0.69 0.154 1.072 0.154 1.098 0 2.087-0.464 2.783-1.206l0.002-0.002c1.83-2 1.502-6.018 0.863-8.082-1.222-3.778-4.034-6.738-7.627-8.133l-0.088-0.030zM9.769 20.703c0.050-1.916 0.957-3.611 2.349-4.723l0.013-0.010c0.537-0.457 1.154-0.843 1.823-1.13l0.047-0.018c0.743-0.325 1.609-0.514 2.519-0.514 1.013 0 1.971 0.235 2.824 0.652l-0.038-0.017c1.954 1.218 3.234 3.355 3.234 5.792 0 0.113-0.003 0.226-0.008 0.337l0.001-0.016c-0 0.003-0 0.006-0 0.009 0 0.656 0.532 1.188 1.188 1.188 0.041 0 0.082-0.002 0.122-0.006l-0.005 0c0.665-0.031 1.193-0.578 1.193-1.248 0-0.020-0-0.040-0.001-0.060l0 0.003c0.004-0.097 0.006-0.211 0.006-0.326 0-3.369-1.833-6.311-4.556-7.881l-0.044-0.023c-1.144-0.569-2.491-0.902-3.916-0.902-1.256 0-2.452 0.259-3.537 0.726l0.058-0.022c-0.964 0.41-1.795 0.928-2.531 1.554l0.014-0.011c-1.929 1.568-3.173 3.914-3.251 6.553l-0 0.013c0.122 4.085 1.926 7.725 4.74 10.27l0.012 0.011c0.224 0.214 0.528 0.346 0.863 0.346 0.69 0 1.25-0.56 1.25-1.25 0-0.355-0.148-0.676-0.386-0.904l-0-0c-2.336-2.079-3.84-5.047-3.98-8.369l-0.001-0.024z"></path>
</svg>